<?xml version="1.0" standalone="no"?>
<!DOCTYPE svg PUBLIC "-//W3C//DTD SVG 20010904//EN"
 "http://www.w3.org/TR/2001/REC-SVG-20010904/DTD/svg10.dtd">
<svg version="1.0" xmlns="http://www.w3.org/2000/svg"
 width="461.000000pt" height="346.000000pt" viewBox="0 0 461.000000 346.000000"
 preserveAspectRatio="xMidYMid meet">
<metadata>
Created by potrace 1.16, written by Peter Selinger 2001-2019
</metadata>
<g transform="translate(0.000000,346.000000) scale(0.100000,-0.100000)"
fill="#000000" stroke="none">
<path d="M770 1900 l0 -1390 1530 0 c1013 0 1530 3 1530 10 0 7 -513 10 -1520
10 l-1520 0 0 1237 1 1236 37 -35 c20 -20 71 -61 112 -92 108 -79 157 -116
204 -155 22 -18 51 -38 64 -44 12 -6 22 -13 22 -17 0 -10 79 -64 85 -58 9 8
-44 52 -150 125 -22 15 -48 35 -58 45 -10 10 -35 30 -55 43 -20 13 -62 45 -92
69 -30 25 -72 56 -92 68 -28 17 -38 30 -38 49 0 14 -9 34 -20 44 -18 16 -20
31 -20 132 0 69 -4 113 -10 113 -7 0 -10 -470 -10 -1390z"/>
<path d="M2830 3070 c0 -33 4 -60 10 -60 6 0 10 12 10 27 l0 27 28 -26 c19
-18 39 -26 66 -26 46 -2 66 11 66 43 0 29 -22 47 -52 43 -19 -2 -24 -10 -26
-42 l-3 -38 -30 28 -29 28 27 28 c32 33 23 37 -18 7 l-29 -20 0 20 c0 12 -4
21 -10 21 -6 0 -10 -27 -10 -60z m155 -16 c0 -32 -21 -39 -38 -12 -8 12 -7 21
3 32 19 24 35 14 35 -20z"/>
<path d="M2480 3090 c-22 -41 13 -80 59 -65 48 15 31 85 -19 85 -19 0 -33 -7
-40 -20z"/>
<path d="M3034 3074 c-9 -36 7 -59 42 -59 27 0 29 3 29 40 0 38 -2 40 -32 43
-28 3 -33 0 -39 -24z m55 -3 c7 -13 6 -23 -4 -37 -15 -19 -15 -19 -30 0 -15
19 -5 56 15 56 5 0 14 -8 19 -19z"/>
<path d="M3141 3035 c1 -33 4 -51 6 -39 3 16 10 20 28 16 19 -3 27 2 36 21 17
37 -3 68 -41 65 -30 -2 -30 -3 -29 -63z m54 20 c0 -23 -4 -30 -20 -30 -21 0
-31 25 -21 51 11 28 41 12 41 -21z"/>
<path d="M3241 3052 c1 -45 1 -46 9 -14 15 66 49 68 52 4 1 -36 1 -36 5 -5 4
32 28 61 40 50 3 -4 10 -24 14 -44 l7 -38 -1 45 -2 45 -62 2 -63 3 1 -48z"/>
<path d="M3400 3092 c0 -5 11 -7 25 -4 15 2 25 0 25 -7 0 -6 -6 -11 -14 -11
-21 0 -46 -28 -40 -45 4 -9 20 -15 41 -15 34 0 34 0 31 43 -3 39 -5 42 -35 45
-18 2 -33 -1 -33 -6z m47 -59 c-15 -15 -37 -11 -37 7 0 10 31 19 43 12 5 -2 2
-11 -6 -19z"/>
<path d="M3500 3056 c0 -55 17 -62 22 -8 2 25 8 37 18 37 10 0 16 -12 18 -37
2 -21 8 -38 13 -38 6 0 9 19 7 43 -3 41 -4 42 -40 45 l-38 3 0 -45z"/>
<path d="M3607 3093 c-14 -14 -6 -34 18 -43 14 -5 25 -15 25 -21 0 -7 -10 -9
-25 -7 -14 3 -25 1 -25 -4 0 -5 15 -8 32 -6 46 4 50 35 8 49 -32 12 -30 23 5
32 16 4 15 5 -6 6 -14 0 -29 -2 -32 -6z"/>
<path d="M2360 3070 c0 -5 18 -10 40 -10 22 0 40 5 40 10 0 6 -18 10 -40 10
-22 0 -40 -4 -40 -10z"/>
<path d="M2600 3070 c0 -5 16 -10 35 -10 19 0 35 5 35 10 0 6 -16 10 -35 10
-19 0 -35 -4 -35 -10z"/>
<path d="M3180 2890 c0 -5 5 -10 11 -10 5 0 7 5 4 10 -3 6 -8 10 -11 10 -2 0
-4 -4 -4 -10z"/>
<path d="M3293 2835 c0 -38 2 -53 4 -32 2 20 2 52 0 70 -2 17 -4 1 -4 -38z"/>
<path d="M3633 2835 c0 -38 2 -53 4 -32 2 20 2 52 0 70 -2 17 -4 1 -4 -38z"/>
<path d="M1390 2855 c0 -8 2 -15 4 -15 2 0 6 7 10 15 3 8 1 15 -4 15 -6 0 -10
-7 -10 -15z"/>
<path d="M1642 2838 c-1 -20 -8 -39 -14 -41 -7 -3 1 -6 17 -6 17 0 25 3 18 7
-6 4 -13 23 -16 42 l-4 35 -1 -37z"/>
<path d="M2830 2840 c0 -13 10 -24 26 -30 28 -11 23 -35 -7 -27 -11 3 -19 1
-19 -4 0 -5 14 -9 30 -9 25 0 30 4 30 24 0 17 -7 26 -25 30 -15 4 -23 11 -19
17 3 6 15 9 25 6 11 -3 19 -1 19 4 0 5 -13 9 -30 9 -23 0 -30 -4 -30 -20z"/>
<path d="M2922 2848 c-7 -7 -12 -21 -12 -33 0 -12 5 -26 12 -33 13 -13 68 -17
68 -4 0 4 -12 8 -27 7 -14 0 -28 6 -30 13 -3 8 7 12 31 12 39 0 41 2 26 31
-12 21 -50 25 -68 7z m49 -13 c0 -5 -9 -11 -21 -13 -20 -3 -27 8 -13 22 10 9
34 3 34 -9z"/>
<path d="M3021 2812 c1 -45 1 -46 9 -14 15 66 49 68 52 4 1 -36 1 -36 5 -5 4
32 28 61 40 50 3 -4 10 -24 14 -44 l7 -38 -1 45 -2 45 -62 2 -63 3 1 -48z"/>
<path d="M3180 2815 c0 -25 5 -45 10 -45 6 0 10 20 10 45 0 25 -4 45 -10 45
-5 0 -10 -20 -10 -45z"/>
<path d="M3334 2846 c-3 -8 -4 -27 -2 -43 6 -50 78 -40 78 11 0 12 -5 27 -12
34 -16 16 -57 15 -64 -2z m51 -32 c0 -32 -21 -39 -38 -12 -8 12 -7 21 3 32 19
24 35 14 35 -20z"/>
<path d="M3434 2846 c-3 -8 -4 -27 -2 -43 2 -24 8 -28 36 -31 17 -2 32 1 32 6
0 6 -8 8 -18 5 -10 -2 -25 3 -32 12 -18 22 -1 50 29 49 11 0 21 3 21 8 0 14
-60 9 -66 -6z"/>
<path d="M3530 2851 c0 -5 8 -7 19 -4 10 3 22 0 25 -6 4 -7 -1 -11 -12 -11
-25 0 -46 -25 -38 -45 3 -9 18 -15 41 -15 33 0 35 2 35 33 0 18 -5 38 -12 45
-14 14 -58 16 -58 3z m48 -48 c-4 -22 -38 -30 -38 -10 0 14 13 24 33 26 5 1 7
-7 5 -16z"/>
<path d="M1169 2848 c-5 -18 -6 -38 -1 -34 7 8 12 36 6 36 -2 0 -4 -1 -5 -2z"/>
<path d="M1441 2834 c0 -11 3 -14 6 -6 3 7 2 16 -1 19 -3 4 -6 -2 -5 -13z"/>
<path d="M1712 2825 c0 -16 2 -22 5 -12 2 9 2 23 0 30 -3 6 -5 -1 -5 -18z"/>
<path d="M1222 2800 c0 -19 2 -27 5 -17 2 9 2 25 0 35 -3 9 -5 1 -5 -18z"/>
<path d="M1518 2823 c12 -2 30 -2 40 0 9 3 -1 5 -23 4 -22 0 -30 -2 -17 -4z"/>
<path d="M1341 2804 c0 -11 3 -14 6 -6 3 7 2 16 -1 19 -3 4 -6 -2 -5 -13z"/>
<path d="M1381 2804 c0 -11 3 -14 6 -6 3 7 2 16 -1 19 -3 4 -6 -2 -5 -13z"/>
<path d="M1420 2811 c0 -5 5 -13 10 -16 6 -3 10 -2 10 4 0 5 -4 13 -10 16 -5
3 -10 2 -10 -4z"/>
<path d="M3228 2813 c6 -2 18 -2 25 0 6 3 1 5 -13 5 -14 0 -19 -2 -12 -5z"/>
<path d="M1328 2623 c12 -21 -9 -45 -35 -38 -18 6 4 -5 65 -31 36 -15 42 -6
13 20 -11 10 -22 28 -25 42 -4 13 -11 24 -17 24 -6 0 -7 -6 -1 -17z"/>
<path d="M1420 2516 c0 -9 61 -48 67 -42 7 7 -38 45 -54 46 -7 0 -13 -2 -13
-4z"/>
<path d="M1520 2444 c0 -11 45 -43 60 -43 9 0 4 9 -15 24 -29 24 -45 31 -45
19z"/>
<path d="M1620 2371 c0 -12 51 -53 58 -46 7 6 -17 34 -40 46 -11 6 -18 6 -18
0z"/>
<path d="M1710 2301 c0 -13 56 -52 63 -45 3 4 -7 17 -22 30 -31 26 -41 29 -41
15z"/>
<path d="M1806 2231 c-3 -4 8 -18 24 -29 31 -24 40 -27 40 -14 0 13 -58 53
-64 43z"/>
<path d="M1900 2161 c0 -11 48 -51 62 -51 14 0 1 17 -32 40 -17 12 -30 17 -30
11z"/>
<path d="M2020 2059 c19 -16 36 -25 38 -19 5 13 -38 49 -58 49 -9 0 -1 -12 20
-30z"/>
<path d="M584 2044 c-18 -14 -18 -15 6 -7 31 9 76 9 115 -1 28 -7 29 -7 11 8
-26 21 -106 21 -132 0z"/>
<path d="M2090 2012 c0 -13 58 -53 64 -43 3 4 -8 18 -24 29 -31 24 -40 27 -40
14z"/>
<path d="M670 1990 c8 -5 26 -9 40 -9 l25 1 -25 8 c-14 4 -32 8 -40 9 -13 1
-13 0 0 -9z"/>
<path d="M570 1964 c0 -25 25 -40 74 -43 22 -1 43 -4 48 -7 4 -3 8 0 8 5 0 6
-18 14 -40 17 -24 4 -40 12 -40 20 0 17 -20 19 -20 2 0 -8 -7 -5 -15 6 -15 20
-15 20 -15 0z"/>
<path d="M2187 1943 c-4 -3 8 -17 25 -30 36 -26 38 -27 38 -14 0 13 -56 52
-63 44z"/>
<path d="M584 1866 c26 -21 106 -21 132 0 18 15 17 15 -11 8 -39 -10 -84 -10
-115 -1 -24 8 -24 7 -6 -7z"/>
<path d="M2280 1871 c0 -15 51 -51 62 -45 5 3 -5 17 -23 30 -37 27 -39 28 -39
15z"/>
<path d="M570 1791 c0 -39 0 -39 50 -50 79 -17 80 -17 78 32 -1 37 -2 38 -5 9
-4 -27 -8 -33 -26 -30 -16 2 -24 12 -28 38 l-6 35 -2 -32 c-1 -26 -5 -33 -21
-33 -16 0 -20 7 -20 35 0 19 -4 35 -10 35 -5 0 -10 -18 -10 -39z"/>
<path d="M2376 1802 c-7 -12 52 -58 61 -48 4 3 4 7 2 9 -2 1 -16 12 -30 25
-16 14 -29 19 -33 14z"/>
<path d="M2470 1724 c0 -11 45 -43 60 -43 9 0 4 9 -15 24 -29 24 -45 31 -45
19z"/>
<path d="M2570 1651 c0 -5 14 -19 30 -31 32 -23 42 -13 13 12 -27 23 -43 30
-43 19z"/>
<path d="M2660 1581 c0 -14 58 -53 64 -43 3 5 -8 19 -24 30 -32 24 -40 27 -40
13z"/>
<path d="M2756 1511 c-3 -4 8 -18 24 -29 31 -24 40 -27 40 -14 0 13 -58 53
-64 43z"/>
<path d="M2873 1415 c15 -14 33 -25 40 -25 7 0 -1 12 -16 25 -15 14 -33 25
-40 25 -7 0 1 -12 16 -25z"/>
<path d="M2970 1339 c19 -16 36 -25 38 -19 5 13 -38 49 -58 49 -9 0 -1 -12 20
-30z"/>
<path d="M3701 1343 c-1 -19 4 -23 27 -22 22 1 23 2 5 6 -12 2 -24 12 -26 21
-3 12 -5 10 -6 -5z"/>
<path d="M3835 1350 c3 -5 8 -10 11 -10 2 0 4 5 4 10 0 6 -5 10 -11 10 -5 0
-7 -4 -4 -10z"/>
<path d="M3881 1344 c0 -11 3 -14 6 -6 3 7 2 16 -1 19 -3 4 -6 -2 -5 -13z"/>
<path d="M4230 1345 c0 -8 2 -15 4 -15 2 0 6 7 10 15 3 8 1 15 -4 15 -6 0 -10
-7 -10 -15z"/>
<path d="M3471 1334 c0 -11 3 -14 6 -6 3 7 2 16 -1 19 -3 4 -6 -2 -5 -13z"/>
<path d="M4551 1334 c0 -11 3 -14 6 -6 3 7 2 16 -1 19 -3 4 -6 -2 -5 -13z"/>
<path d="M3821 1324 c0 -11 3 -14 6 -6 3 7 2 16 -1 19 -3 4 -6 -2 -5 -13z"/>
<path d="M3922 1315 c0 -16 2 -22 5 -12 2 9 2 23 0 30 -3 6 -5 -1 -5 -18z"/>
<path d="M4281 1324 c0 -11 3 -14 6 -6 3 7 2 16 -1 19 -3 4 -6 -2 -5 -13z"/>
<path d="M3412 1310 c0 -14 2 -19 5 -12 2 6 2 18 0 25 -3 6 -5 1 -5 -13z"/>
<path d="M3771 1314 c0 -11 3 -14 6 -6 3 7 2 16 -1 19 -3 4 -6 -2 -5 -13z"/>
<path d="M4100 1305 c0 -21 4 -25 28 -24 23 2 24 2 5 6 -13 2 -23 11 -23 18 0
7 10 16 23 18 19 4 18 4 -5 6 -24 1 -28 -3 -28 -24z"/>
<path d="M3867 1306 c-4 -10 -5 -21 -2 -24 9 -9 17 6 13 25 -3 17 -4 17 -11
-1z"/>
<path d="M3998 1313 c12 -2 30 -2 40 0 9 3 -1 5 -23 4 -22 0 -30 -2 -17 -4z"/>
<path d="M4358 1313 c12 -2 30 -2 40 0 9 3 -1 5 -23 4 -22 0 -30 -2 -17 -4z"/>
<path d="M3165 1299 c-4 -6 -5 -12 -2 -15 2 -3 7 2 10 11 7 17 1 20 -8 4z"/>
<path d="M3598 1303 c12 -2 30 -2 40 0 9 3 -1 5 -23 4 -22 0 -30 -2 -17 -4z"/>
<path d="M3690 1298 c0 -13 7 -18 28 -17 21 1 22 2 7 6 -11 3 -23 10 -27 17
-5 7 -8 5 -8 -6z"/>
<path d="M4181 1294 c0 -11 3 -14 6 -6 3 7 2 16 -1 19 -3 4 -6 -2 -5 -13z"/>
<path d="M4221 1294 c0 -11 3 -14 6 -6 3 7 2 16 -1 19 -3 4 -6 -2 -5 -13z"/>
<path d="M4260 1301 c0 -5 5 -13 10 -16 6 -3 10 -2 10 4 0 5 -4 13 -10 16 -5
3 -10 2 -10 -4z"/>
<path d="M3040 1292 c0 -13 58 -53 64 -43 3 4 -8 18 -24 29 -31 24 -40 27 -40
14z"/>
<path d="M3450 1290 c0 -5 5 -10 10 -10 6 0 10 5 10 10 0 6 -4 10 -10 10 -5 0
-10 -4 -10 -10z"/>
<path d="M4478 1283 c6 -2 18 -2 25 0 6 3 1 5 -13 5 -14 0 -19 -2 -12 -5z"/>
<path d="M3137 1223 c-4 -3 8 -17 25 -30 36 -26 38 -27 38 -14 0 13 -56 52
-63 44z"/>
<path d="M3230 1155 c0 -2 12 -23 26 -46 14 -25 22 -33 18 -19 -8 29 -11 31
119 -72 47 -38 90 -68 96 -68 5 0 14 -6 18 -14 4 -7 26 -26 49 -42 23 -16 87
-64 143 -106 57 -43 109 -78 117 -78 8 0 14 10 14 21 0 17 -5 20 -21 16 -19
-5 -108 55 -237 161 -19 15 -39 29 -45 31 -7 2 -23 14 -37 26 -37 34 -172 135
-181 135 -4 0 -10 7 -13 16 -5 12 -1 14 17 10 19 -5 20 -5 2 3 -30 12 -85 30
-85 26z"/>
<path d="M3784 685 c3 -9 6 -19 6 -21 0 -2 9 -4 21 -4 29 0 21 34 -10 38 -19
3 -22 0 -17 -13z"/>
<path d="M751 371 c-24 -45 -5 -101 34 -101 28 0 39 26 33 81 -2 28 -7 35 -30
37 -18 2 -30 -3 -37 -17z m51 -16 c8 -19 8 -31 -1 -51 -15 -34 -35 -26 -39 15
-6 61 19 83 40 36z"/>
<path d="M3790 380 c0 -5 7 -10 15 -10 23 0 20 -76 -2 -89 -14 -8 -10 -10 22
-10 22 0 34 3 28 6 -8 3 -13 25 -13 59 0 51 -1 54 -25 54 -14 0 -25 -4 -25
-10z"/>
<path d="M2282 175 c-12 -13 -17 -27 -12 -30 5 -3 7 -11 5 -18 -12 -39 -14
-67 -6 -67 6 0 13 17 17 38 3 20 13 43 22 50 9 7 11 12 4 12 -7 0 -12 5 -12
10 0 6 7 10 15 10 8 0 15 5 15 10 0 18 -26 10 -48 -15z"/>
<path d="M2325 70 c-4 -17 -5 -34 -2 -36 3 -3 8 9 12 26 4 17 5 34 2 36 -3 3
-8 -9 -12 -26z"/>
</g>
</svg>
